<?xml version="1.0" ?><!DOCTYPE svg  PUBLIC '-//W3C//DTD SVG 1.1//EN'  'http://www.w3.org/Graphics/SVG/1.1/DTD/svg11.dtd'><svg id="Capa_1" style="enable-background:new 0 0 60 60;" version="1.1" viewBox="0 0 60 60" xml:space="preserve" xmlns="http://www.w3.org/2000/svg" xmlns:xlink="http://www.w3.org/1999/xlink"><path d="M58.439,15.419L55.016,2.643l-0.289-1.062L32.939,7.419H3v8H0v2.291v38.418v2.291h60v-2.291V17.71v-2.291H58.439z   M4.214,17.419h37.161h10.353h4.638L36.577,37.437l0.049,0.047l-5.446,5.472c-0.662,0.615-1.698,0.614-2.332,0.026l-5.473-5.498  l0.048-0.047L3.647,17.419H4.214z M42.571,14.155l5.796-1.553l0.754,2.816H42.91L42.571,14.155z M20.524,37.452L2,55.274V18.842  L20.524,37.452z M21.934,38.869l5.523,5.549c0.709,0.661,1.619,0.993,2.533,0.993c0.923,0,1.85-0.339,2.581-1.02l5.496-5.522  l18.238,17.549H3.686L21.934,38.869z M39.477,37.453L58,18.841v36.433L39.477,37.453z M56.369,15.419h-5.177l-1.411-5.266  l-9.659,2.588l0.717,2.678H10.81l42.507-11.39L56.369,15.419z M25.475,9.419l-1.131,0.303L5,14.905V9.419H25.475z"/><g/><g/><g/><g/><g/><g/><g/><g/><g/><g/><g/><g/><g/><g/><g/></svg>